PathFileType	4	(X/Y/Z)	c:/Users/goper/Files/vsCode/490R/osim_files/C08/C08_Slow_04.trc
DataRate	CameraRate	NumFrames	NumMarkers	Units                	OrigDataRate	OrigDataStartFrame	OrigNumFrames
250.00	250.00	4	36	mm	250.0	1719	2750
                Frame#	Time	LPSIS			LASIS			LTH1			LTH2			LTH3			LTH4			LLFE			LMFE			LSH1			LSH2			LSH3			LSH4			LLMAL			LMMAL			LCAL			LMTP5			LTOE			LMTP1			RPSIS			RASIS			RTH1			RTH2			RTH3			RTH4			RLFE			RMFE			RSH1			RSH2			RSH3			RSH4			RLMAL			RMMAL			RCAL			RMTP1			RTOE			RMTP5		
		X1	Y1	Z1	X2	Y2	Z2	X3	Y3	Z3	X4	Y4	Z4	X5	Y5	Z5	X6	Y6	Z6	X7	Y7	Z7	X8	Y8	Z8	X9	Y9	Z9	X10	Y10	Z10	X11	Y11	Z11	X12	Y12	Z12	X13	Y13	Z13	X14	Y14	Z14	X15	Y15	Z15	X16	Y16	Z16	X17	Y17	Z17	X18	Y18	Z18	X19	Y19	Z19	X20	Y20	Z20	X21	Y21	Z21	X22	Y22	Z22	X23	Y23	Z23	X24	Y24	Z24	X25	Y25	Z25	X26	Y26	Z26	X27	Y27	Z27	X28	Y28	Z28	X29	Y29	Z29	X30	Y30	Z30	X31	Y31	Z31	X32	Y32	Z32	X33	Y33	Z33	X34	Y34	Z34	X35	Y35	Z35	X36	Y36	Z36

1719	6.87200	-2124.71289	1037.40259	178.56851	-2327.36646	998.60504	276.18732	-2229.92236	715.38739	344.46524	-2233.48340	637.59912	334.60666	-2234.84717	563.04022	330.19885	-2312.54224	645.05396	326.13626	-2230.68213	514.37140	324.64297	-2265.44312	496.24969	199.61888	-2124.58447	453.84293	329.14761	-2097.59595	415.71976	327.79007	-2170.26685	413.20551	333.71289	-2137.01489	381.61307	329.87094	-1919.50476	210.91515	266.67828	-1948.19006	203.52487	182.71220	-1869.24524	252.92677	211.49254	-1936.66589	77.79449	284.24454	-1996.69946	55.73369	226.79083	-1964.18811	71.70923	174.37593	-2128.24951	1036.81116	118.08501	-2334.04224	1012.91406	41.03596	-2318.08643	745.66962	-20.52177	-2335.46460	670.22406	1.80898	-2351.71729	593.57635	8.33701	-2404.47754	691.60199	30.72106	-2370.23608	526.14117	29.53731	-2360.51831	520.19910	154.82581	-2325.72461	436.23050	9.84835	-2335.46460	392.66092	5.57457	-2385.86694	441.74881	23.32710	-2388.18726	397.46021	18.15989	-2344.71484	97.77698	70.39215	-2374.01953	102.44392	157.47319	-2288.48975	74.96394	140.34950	-2505.42700	47.12719	145.74402	-2520.99243	67.54382	92.50076	-2469.80688	47.66708	33.23427
1720	6.87600	-2128.51074	1037.43555	177.84657	-2331.07568	998.73560	275.68558	-2235.99390	715.30658	344.46243	-2239.79395	637.47321	334.57443	-2242.43750	562.95117	330.69388	-2319.39209	645.62946	326.69193	-2238.57471	514.36792	324.98965	-2273.61377	496.41507	199.91682	-2133.32104	454.67746	329.86139	-2106.04907	416.78119	328.38895	-2178.63159	413.63544	334.21658	-2145.16553	382.39032	330.27679	-1926.27991	213.95102	266.87250	-1954.58508	206.40245	183.02811	-1876.44287	257.01541	211.66899	-1940.60608	80.64055	284.53888	-2000.40222	57.09462	227.66156	-1968.73059	74.11607	175.19482	-2132.03442	1037.04773	117.30530	-2337.93262	1013.09082	40.54256	-2320.91528	745.86798	-21.11902	-2337.81812	670.68683	1.37895	-2353.79346	593.62726	7.81043	-2407.03076	691.34351	30.05682	-2371.98096	526.04877	29.01937	-2362.44653	520.16754	154.32744	-2327.13647	436.23907	9.41441	-2336.75342	392.65530	5.18967	-2387.77563	441.77621	22.56259	-2389.45557	397.27621	17.77509	-2344.83862	97.82681	70.33715	-2374.11499	102.48878	157.39526	-2288.23462	75.14532	140.18185	-2505.44189	47.03892	145.74525	-2521.03516	67.36349	92.49556	-2469.82178	47.58547	33.16698
1721	6.88000	-2132.17896	1037.49463	177.11636	-2334.72852	998.81958	275.27420	-2242.00635	715.31952	344.45035	-2246.70630	637.47638	334.77902	-2250.02856	562.99060	331.20807	-2326.18994	646.28845	327.25507	-2246.65332	514.34998	325.46933	-2282.24316	496.91592	200.21167	-2143.58130	456.37802	330.84979	-2114.44995	417.95685	329.02853	-2186.98218	414.27365	335.00067	-2153.34839	383.20377	330.67584	-1932.80298	217.11482	267.13556	-1961.16589	208.99982	183.47430	-1883.69519	260.59061	211.95497	-1945.09851	83.51514	285.06805	-2004.72998	58.82977	228.55919	-1973.63318	76.34525	175.93167	-2136.79590	1036.87097	116.87638	-2341.79419	1013.21722	40.07551	-2323.54175	746.01178	-21.66772	-2340.18115	670.85559	0.70125	-2356.23657	593.67316	7.24369	-2409.51025	691.09924	29.42319	-2373.70239	525.93799	28.53195	-2364.30493	520.15857	153.82060	-2328.53027	436.29852	9.04041	-2337.91138	392.68253	4.79625	-2388.69556	441.36688	22.46186	-2390.68604	397.09973	17.34935	-2344.82812	97.76845	70.28130	-2374.17236	102.47519	157.32124	-2288.62988	74.94421	140.22025	-2505.47803	46.98736	145.72238	-2521.07910	67.19089	92.46984	-2469.82568	47.47879	33.11392
1722	6.88400	-2135.94580	1037.51941	176.39737	-2338.41431	998.95245	274.91684	-2247.37354	715.67389	344.36652	-2254.08105	637.75354	335.28470	-2257.50830	563.06604	331.68576	-2333.56641	647.34894	328.06439	-2254.81665	514.38672	326.07962	-2290.78931	497.56757	200.44510	-2150.74390	456.60846	331.26105	-2122.80933	419.08652	329.54034	-2195.42114	414.78751	335.06366	-2161.52295	384.07986	331.01147	-1938.32812	220.32228	267.55997	-1967.61096	211.64824	183.56961	-1890.54968	263.95187	211.71843	-1950.08960	86.54253	285.73978	-2009.74121	61.04745	229.55176	-1978.85046	78.67061	176.75833	-2140.58911	1037.05444	116.10220	-2345.69238	1013.30487	39.61497	-2325.48853	746.66351	-21.56904	-2342.52319	671.02417	0.12802	-2358.25562	593.73676	6.44267	-2411.96338	690.88629	28.81297	-2375.33203	525.84259	27.99166	-2366.33521	519.97986	153.11966	-2329.82520	436.33176	8.53852	-2339.02881	392.66669	4.39856	-2390.78149	441.61353	21.70811	-2391.83496	396.91226	16.91657	-2344.94287	97.78519	70.17570	-2374.25806	102.49042	157.26605	-2288.22803	75.21598	140.15114	-2505.48047	46.92385	145.70886	-2521.12036	67.02071	92.43256	-2469.84644	47.39862	33.04615
